<svg xmlns="http://www.w3.org/2000/svg" xmlns:xlink="http://www.w3.org/1999/xlink" xml:space="preserve" version="1.1" style="shape-rendering:geometricPrecision;text-rendering:geometricPrecision;image-rendering:optimizeQuality;" viewBox="0 0 100 125" x="0px" y="0px" fill-rule="evenodd" clip-rule="evenodd"><defs><style type="text/css">
   
    .fil0 {fill:black;fill-rule:nonzero}
   
  </style></defs><g><path class="fil0" d="M21.03 82.94c-0.47,11.99 -7.76,15.1 -18.48,14.67 -0.28,-10.61 2.78,-18.09 14.76,-18.42l-0.01 -3.55c-11.98,-0.25 -15.03,-7.2 -14.75,-17.9 10.51,-0.43 17.98,2.16 18.44,14.15l3.72 0 0 -18.08 -22.21 0 0 -51.54 3.74 0 0 47.81 22.2 0 0 21.81 22.19 0 0 22.11 46.87 0 0 3.73 -50.61 0 0 -22.1 -18.45 0 0 3.56c11.98,0.33 15.05,7.8 14.77,18.42 -10.71,0.43 -18.02,-2.68 -18.48,-14.67l-3.7 0zm-3.73 -0.02c-7.29,0.23 -10.74,3.79 -11.06,11.05 7.3,-0.23 10.75,-3.8 11.06,-11.05zm7.41 -3.72l0 -3.57 -3.69 0 0.02 3.57 3.67 0zm-18.47 -17.83c0.32,7.29 3.83,10.37 11.03,10.54 -0.32,-7.29 -3.83,-10.37 -11.03,-10.54zm22.21 21.55c0.32,7.25 3.78,10.82 11.07,11.05 -0.32,-7.26 -3.77,-10.82 -11.07,-11.05z"/></g><text x="0" y="115" fill="#000000" font-size="5px" font-weight="bold" font-family="'Helvetica Neue', Helvetica, Arial-Unicode, Arial, Sans-serif">Created by Opek</text><text x="0" y="120" fill="#000000" font-size="5px" font-weight="bold" font-family="'Helvetica Neue', Helvetica, Arial-Unicode, Arial, Sans-serif">from the Noun Project</text></svg>