<?xml version="1.0" encoding="utf-8"?>
<!DOCTYPE svg PUBLIC "-//W3C//DTD SVG 1.0//EN" "http://www.w3.org/TR/2001/REC-SVG-20010904/DTD/svg10.dtd">
<svg version="1.0" xmlns="http://www.w3.org/2000/svg" width="498px" height="501px" viewBox="0 0 498 501" preserveAspectRatio="xMidYMid meet">
 <g fill="#ffffff">
  <path d="M0 250.5 l0 -250.5 249 0 249 0 0 250.5 0 250.5 -249 0 -249 0 0 -250.5z m172.5 214.5 l6.7 -6.4 -0.7 -6.1 c-0.3 -3.3 -0.6 -21.5 -0.7 -40.4 -0.1 -33.9 -0.1 -34.4 -2.3 -36.7 -1.2 -1.3 -2.5 -2.4 -2.8 -2.4 -0.3 0 -4.5 2.4 -9.4 5.3 l-8.8 5.2 3.7 0.3 c2.3 0.2 3.9 0.9 4.3 2 1.3 3.1 1.4 42.4 0.2 64.3 -0.7 11.8 -1.1 22.3 -0.9 23.3 0.4 1.7 0.5 1.7 2.2 -0.1 1 -1 4.8 -4.7 8.5 -8.3z m-43.2 6.8 c5 -3.5 14.7 -12.4 14.7 -13.4 0 -0.2 -0.9 0 -1.9 0.6 -3.4 1.8 -9.2 1.1 -15.2 -1.7 -4.6 -2.2 -6.3 -3.7 -8.8 -7.8 -3.7 -6.1 -5.5 -14.7 -4.8 -23.2 l0.5 -6.2 -3.4 4.1 c-1.9 2.2 -4.9 7.1 -6.8 10.9 -2.8 5.6 -3.3 7.7 -2.9 11 0.4 2.9 0.2 4.4 -0.8 5 -1 0.6 -0.2 0.9 2.4 0.9 3.6 0 3.7 0.1 3.7 3.9 0 2.9 0.7 4.6 2.8 6.7 6.1 6.2 13.3 11.1 16.5 11.3 0.5 0.1 2.3 -0.9 4 -2.1z m184.5 -3.5 c2.4 -1.8 5.1 -3.3 5.9 -3.3 0.9 0 3 -1 4.7 -2.3 1.7 -1.3 3.8 -2.6 4.7 -2.9 1.3 -0.5 1.7 -3.2 2.2 -15.9 0.9 -19.1 0.9 -37.7 0 -40.8 -0.5 -2 -1.1 -2.3 -4.2 -1.8 -3.3 0.4 -18.3 8.7 -19.6 10.8 -0.4 0.5 0.5 0.9 1.9 0.9 2.2 0 2.6 0.6 3.6 5.7 1.8 8.6 0.2 28.3 -3.5 41.8 -0.7 2.8 -1.6 6.7 -1.9 8.8 -0.5 4.2 -0.6 4.2 6.2 -1z m104.1 -2.5 l3.3 -3.8 -7.2 -12 c-3.9 -6.6 -7.6 -12 -8.1 -12 -0.5 0 -0.9 -0.8 -0.9 -1.8 0 -0.9 -1 -2.9 -2.2 -4.2 -1.3 -1.4 -3.8 -5.5 -5.7 -9 -1.9 -3.6 -5.8 -9.8 -8.7 -13.7 -11.6 -16.2 -12.6 -16.5 -25.1 -10.2 l-8.6 4.2 4.9 1.3 c2.7 0.7 5.1 1.3 5.4 1.4 0.3 0 2.5 1.8 4.8 3.9 4.5 4.2 6.2 7.5 6.2 12.1 0 2.7 -0.4 2.9 -5.7 4.1 -9.5 1.9 -21.8 12 -26.2 21.4 -2.1 4.4 -2.1 4.4 -0.1 8.9 2.3 5.4 12.7 13.6 17.2 13.6 3.5 0 12.6 -5.3 15.7 -9.2 1.3 -1.6 3.5 -3.4 5 -4 1.4 -0.6 2.1 -1.2 1.4 -1.5 -0.7 -0.2 -2.1 0 -3.2 0.6 -1.1 0.6 -5.4 1.1 -9.6 1.1 -12.1 0 -18.5 -4.4 -18.5 -12.9 0 -2.2 0.7 -4.6 1.5 -5.4 1.8 -1.8 14.7 -3.2 21.1 -2.3 4.3 0.5 13.9 5.1 17.8 8.5 1.8 1.6 10.6 14.5 10.6 15.7 0 0.3 1.6 3.2 3.6 6.5 3.6 5.8 3.7 5.8 5.8 4.1 1.2 -0.9 3.7 -3.4 5.5 -5.4z m-329.4 1.5 c1.6 -2.7 4.3 -7.1 6 -9.9 l3.2 -5.1 -22.6 -0.7 c-24.6 -0.7 -26.1 -1.1 -26.1 -6.6 0 -5 3.4 -10.4 12.6 -20 5 -5.2 11.8 -12.7 15.1 -16.6 3.4 -3.9 9.1 -9.7 12.7 -12.9 3.7 -3.2 6.5 -5.9 6.4 -6 -0.2 -0.2 -4.8 0.4 -10.3 1.2 -10.9 1.5 -40.4 2.3 -44.6 1.1 -1.7 -0.5 -2.9 -1.7 -3.3 -3.3 -0.6 -2.4 -0.9 -2.1 -5.2 4.2 -2.6 3.8 -5.6 7.8 -6.7 9 -1.9 2.2 -1.9 2.4 -0.3 4.2 2.4 2.6 11.1 4.1 24.8 4.1 l11.8 0 0 4 c0 2.7 -0.5 4.3 -1.5 4.6 -0.8 0.4 -1.5 1.2 -1.5 2 0 0.8 -0.4 1.4 -0.9 1.4 -0.9 0 -12.5 11.2 -22.3 21.5 -2.6 2.8 -6 6.2 -7.5 7.6 -3.4 3.2 -4.6 4.7 -7.3 9.1 -2.4 4 -2.5 4.4 -0.2 5.1 0.9 0.3 3.7 1.3 6.2 2.3 4.7 1.8 30 4 48.5 4.3 l10 0.1 3 -4.7z m127 3.7 c0.3 -0.5 2.1 -1.7 4 -2.5 1.8 -0.9 5.7 -4.2 8.7 -7.4 11.6 -12.5 13.2 -15.3 6.1 -11 -3.1 1.8 -5.6 2.3 -13.5 2.7 -8.2 0.4 -9.8 0.2 -9.8 -1 0 -0.8 -2 -3.6 -4.5 -6.1 -2.7 -2.8 -4.5 -5.6 -4.5 -7 0 -1.3 -0.5 -2.8 -1.1 -3.4 -0.6 -0.6 -1.4 -5.1 -1.6 -10 -0.5 -7.8 -0.3 -9.1 1.5 -11.3 1.8 -2.3 2.7 -2.5 9.4 -2.5 6.2 0 7.8 0.4 10.6 2.4 2.4 1.9 3.2 3.2 3.2 5.6 0 3.6 -2.3 8.9 -5.4 12.4 -2 2.3 -2 2.3 -0.1 1.3 2.3 -1.2 11.4 -8.9 16 -13.6 1.8 -1.7 3.5 -4.3 3.9 -5.9 0.5 -2.3 0 -3.4 -3.1 -6.6 -5.3 -5.4 -12.2 -7.4 -19.6 -5.7 -7.3 1.7 -10.6 4.5 -19.1 16.1 -10 13.7 -11.2 17.8 -8 28.6 1.8 6.1 6.3 14.8 9.1 17.6 1.8 1.8 5.8 4.6 9.8 6.9 2.5 1.5 7.2 1.7 8 0.4z m75.1 -8.7 c1.6 -3.2 3.8 -7.1 5 -8.8 1.1 -1.6 2.5 -3.7 2.9 -4.5 0.6 -1.2 0.5 -1.3 -0.6 -0.2 -1.8 1.7 -32 1.7 -33.7 0 -1.9 -1.9 -1.4 -7.7 1 -11.7 1.6 -2.5 -0.1 -1.1 -5.4 4.3 -4.2 4.4 -8.2 9 -8.9 10.3 -0.7 1.2 -2 3.1 -2.9 4.1 -2.9 3.1 -4.3 6.3 -3.2 7.4 0.5 0.5 5.9 1.4 11.8 1.9 10 0.8 27.3 2.4 30 2.8 0.7 0 2.4 -2.5 4 -5.6z m152.1 -3.3 l4.8 -4.5 0 -17.5 c0 -9.6 0.4 -18.5 0.9 -19.7 0.7 -1.9 0.5 -2.3 -1.3 -2.3 -1.8 0 -2.1 -0.6 -2.1 -4.1 0 -7.8 -4.5 -13.8 -9.3 -12.4 -5.9 1.8 -13.8 6.5 -10.8 6.5 2 0 3.3 7.6 3.7 21.4 0.2 7.6 0.8 14.4 1.3 15 0.5 0.6 0.9 4.3 0.9 8.2 0 3.9 0.3 9.7 0.7 12.8 l0.7 5.6 2.9 -2.3 c1.6 -1.2 5 -4.2 7.6 -6.7z m-297.9 -35.9 c5.9 -6.1 6.6 -9.4 3 -13.5 -3.4 -3.8 -8.1 -4.5 -15.4 -2.5 -3.4 0.9 -7.5 2.5 -9 3.6 l-2.8 1.8 2.4 0.3 c5.2 0.7 10.8 3.4 11.4 5.6 1 3.8 0.6 12.2 -0.6 13.6 -3.6 3.8 6.5 -4.3 11 -8.9z m334.1 -5.9 c1.8 -1.4 2.3 -2.4 1.8 -4.3 -1.6 -6.2 -8.9 -13.6 -12.4 -12.5 -1 0.3 -4.5 3.2 -7.7 6.3 -5.3 5.3 -5.6 5.8 -3.4 6.1 1.2 0.2 2.9 0.9 3.6 1.5 1.9 1.6 5.2 8.3 5.2 10.7 0 2.1 0.6 1.8 12.9 -7.8z m-191.4 -8.1 c5.7 -6 5.8 -6.3 3 -5.7 -6.2 1.6 -20 2.5 -28 1.9 l-8.4 -0.6 -2.7 5.6 c-1.5 3.1 -2.5 5.9 -2.1 6.3 0.3 0.4 6.1 0.9 12.7 1.2 l12 0.5 0 3.1 0.1 3.1 3.7 -4.5 c2 -2.5 6.4 -7.4 9.7 -10.9z m34.7 -21.5 c0.4 -0.6 -0.6 -2.4 -2.2 -4 -1.7 -1.5 -3 -3.9 -3 -5.2 0 -1.3 -0.5 -2.4 -1 -2.4 -2.2 0 -11 5.1 -11 6.4 0 0.7 1.8 3.4 4.1 5.9 l4 4.7 4.2 -2.2 c2.3 -1.1 4.5 -2.6 4.9 -3.2z m-250.9 -9.7 c1.2 -1.2 4.8 -3.8 7.9 -5.9 5.6 -3.6 5.6 -3.8 3.4 -5 -2.1 -1.1 -2.9 -0.7 -8.7 3.9 -8.2 6.7 -10.3 6.7 -17.9 0.1 -4.9 -4.2 -5.9 -4.8 -7 -3.5 -1 1.2 -0.4 1.9 3.3 4.2 2.5 1.5 5 3.7 5.6 4.9 1.7 3.7 10 4.5 13.4 1.3z m269.3 -40.7 c1 -0.5 6 -2.9 10.9 -5.3 9.1 -4.4 20.8 -12.6 23.4 -16.3 0.8 -1.2 3.6 -4.2 6.2 -6.8 l4.8 -4.7 -6.7 -3.2 c-3.7 -1.7 -6.9 -3.5 -7.2 -3.8 -1.2 -1.6 -7.9 -4.9 -12 -5.9 -22.1 -5.4 -34.6 -6.4 -50.5 -4.2 -8.9 1.3 -20.2 6.5 -21 9.7 -0.4 1.9 -1.2 2.3 -4 2.3 -3.1 0 -3.6 -0.3 -4.2 -3 -0.3 -1.7 -1 -3.3 -1.4 -3.6 -0.5 -0.3 -0.9 -2.5 -0.9 -5 0 -4 0.2 -4.4 2.4 -4.4 1.4 0 2.7 -0.4 3 -0.9 0.8 -1.3 11.6 -4.8 17.1 -5.6 2.8 -0.4 7.7 -1.4 11 -2.2 6.9 -1.8 36.4 -1.5 38.7 0.4 0.7 0.6 4.2 1.4 7.8 1.8 3.6 0.3 7.9 1 9.5 1.5 8.4 2.3 15.4 4.6 19 6.2 6.7 3 7 2.7 9.9 -6.9 1.4 -4.9 3.3 -11 4.2 -13.6 2.9 -8.9 3.6 -16.1 3.5 -36.1 0 -20.9 -0.5 -26.3 -4.8 -49.4 l-2.6 -14.4 -6.1 0.7 c-3.4 0.3 -8.1 1 -10.6 1.5 -5.1 1 -19.2 2.8 -32.5 4 -4.9 0.5 -10.8 1.1 -13 1.4 -2.2 0.3 -13.2 1.1 -24.5 1.7 -11.3 0.6 -20.9 1.4 -21.3 1.6 -0.5 0.3 0.5 1.9 2.1 3.7 4.3 4.6 10.7 14.5 12.3 19.1 0.8 2.2 1.7 4.2 2 4.5 1 0.7 4.6 11.9 5.4 16.5 0.4 2.2 1.3 5.6 2 7.6 1 2.6 1.2 7.1 0.8 17.5 -0.8 20 -2.9 23.3 -14.4 23.4 -7.2 0 -6.5 0.6 -10.4 -8.3 -1.2 -2.9 -1.5 -5.3 -1 -9 1.7 -14.5 1.6 -20.1 -0.5 -23.5 -2.1 -3.4 -7.4 -7.2 -10 -7.2 -0.8 0 -0.4 0.6 1 1.3 1.8 0.9 2.6 2.2 2.8 4.8 0.4 4.5 -1.5 6.1 -6.5 5.7 -3.7 -0.3 -3.8 -0.4 -4.1 -4.5 l-0.3 -4.2 -4.7 3.2 c-2.6 1.8 -5.6 3.7 -6.7 4.1 -1.8 0.8 -1.7 0.9 1.1 1.7 1.6 0.5 4.1 2 5.5 3.5 2.1 2.2 2.4 3.7 2.7 11.2 0.3 7.6 0 10 -2.8 18.5 -6.2 19.3 -7.5 31.1 -4.3 39.7 1.8 5 8.6 14.8 10.9 15.7 0.8 0.3 1.4 1.1 1.4 1.7 0 1.5 5.7 3.6 9.8 3.6 2.3 0 3.1 0.5 3.4 2 0.3 1.9 0.3 1.9 4.7 0 2.4 -1.1 5.9 -2 7.8 -2 3.3 0 3.4 0.1 3.1 3.7 -0.2 3 -0.9 4.1 -3.1 5.1 -1.5 0.7 -2.5 1.7 -2.3 2.1 0.6 0.8 11.4 3.8 15.6 4.3 4 0.5 26.5 -1.9 28.6 -3z m-151.1 1.3 c8.4 -1.9 20.5 -6.4 23.4 -8.6 1.3 -1.1 3 -1.9 3.7 -1.9 2.3 0 13.3 -12.2 14.5 -16 0.6 -1.9 2 -5 3.2 -6.8 2.7 -4.7 3.6 -19.5 1.4 -25.4 -0.8 -2.4 -1.8 -6.1 -2.2 -8.3 -0.4 -2.2 -1 -4.4 -1.4 -5 -1.4 -1.9 -4 -10 -4.7 -14.7 -1.1 -7.9 0.2 -12.8 4.4 -17.4 l3.8 -4.1 -3.7 -3.1 c-2.1 -1.8 -4 -3.2 -4.3 -3.2 -0.3 0 -0.6 1.8 -0.6 3.9 0 4.2 -1.1 5.1 -6 5.1 -3.3 0 -5 -2.3 -5 -6.9 0 -1.8 0.7 -3.4 1.8 -4 1.6 -1 1.6 -1 -0.1 -1.1 -2.9 0 -5.6 1.8 -7.4 5.3 -1.4 2.5 -1.9 6.6 -2.3 17.9 -0.4 12.8 -0.8 15 -2.6 17.5 -1.8 2.4 -2.9 2.8 -7.5 3.1 -5.9 0.4 -12.8 -2.2 -12.9 -4.8 0 -0.8 -0.9 -3.3 -2 -5.5 -1.1 -2.2 -1.9 -6.2 -2 -8.8 0 -2.9 -0.5 -4.9 -1.2 -5.2 -2.2 -0.7 -27.5 -1.8 -42.8 -1.9 -17 0 -33.8 0.9 -43 2.5 l-6.6 1.2 0.4 7.1 c0.2 3.9 0.6 7.8 0.9 8.6 0.4 0.8 1.2 4 1.9 7 2.9 12.8 4.3 17 8.2 23.4 1.9 3.2 1.7 3.2 7.4 0.6 2.4 -1.1 5.1 -2 6.1 -2 0.9 0 2.5 -0.4 3.5 -0.9 2 -1.1 16.1 -4.7 21.7 -5.6 2.2 -0.4 4.5 -1 5 -1.5 1.5 -1.1 24.2 -2.4 42.5 -2.4 13.4 0.1 17.1 0.4 19.5 1.7 1.7 0.9 4.6 1.7 6.5 1.7 5.1 0.1 7 1.9 7 6.9 0 2.9 -0.4 4.1 -1.5 4.1 -0.8 0 -1.7 1.1 -2.1 2.5 -0.5 2 -1.2 2.5 -3.9 2.5 -1.8 0 -3.8 -0.7 -4.5 -1.6 -2.7 -3.1 -9.6 -6.4 -12.6 -5.9 -1.6 0.2 -8.5 0.7 -15.4 1 -16 0.7 -31.4 3.4 -39.5 7 -1.6 0.8 -6.2 2.5 -10 3.8 -7.7 2.7 -14 6.1 -16.8 8.9 -1.4 1.4 -1.4 1.8 -0.4 1.8 0.8 0 2 0.6 2.6 1.4 0.8 0.9 2.5 1.2 5.6 0.8 4.3 -0.4 4.5 -0.4 4.5 2.2 0 1.6 0.6 2.6 1.4 2.6 1.6 0 2.6 2.1 2.6 5.5 0 2.1 0.6 2.4 5.6 3.1 4 0.5 6.5 1.4 8.8 3.4 2 1.7 6.2 3.5 11.6 4.9 4.7 1.2 9.6 2.8 11 3.6 3.3 1.8 16.9 1.8 24.5 0z m-21.3 -110.5 c4.9 -5.1 8.2 -7.2 12.6 -7.9 2.5 -0.4 3.8 -1.2 4 -2.5 0.3 -1.6 -0.1 -1.7 -3 -1.1 -1.8 0.4 -5.6 2 -8.4 3.6 -5.1 2.9 -12.4 4 -12.4 1.9 0 -0.5 -0.7 -1 -1.5 -1 -0.8 0 -2.2 -1.4 -3 -3.1 -1.9 -3.6 -4 -3.3 -9.5 1.2 -2.8 2.4 -4.4 2.9 -8.7 2.9 -2.9 0 -5.3 0.3 -5.3 0.8 0 0.4 0.9 2.2 2 4 l2.1 3.3 5.2 -5 c4.5 -4.4 5.7 -5.1 8.7 -4.9 3.3 0.3 3.5 0.5 3.8 4.1 0.3 2.9 0.9 4 2.7 4.7 1.3 0.5 2.6 1.4 3 1.9 1.2 2.1 4 1.1 7.7 -2.9z m-71.8 -6.5 c2.5 -3.3 3.2 -3.7 6.7 -3.3 3.8 0.3 3.9 0.3 3.9 -2.8 0 -2.8 -0.3 -3.1 -2.5 -2.6 -2.6 0.5 -15.5 12.1 -15.5 14 0 0.6 -0.3 1.9 -0.6 2.9 -0.6 2 3.2 -1.9 8 -8.2z m24 3.8 c3.3 -4.5 4.4 -5.3 7.1 -5.3 2.9 0 3.1 -0.2 2.7 -3 -0.6 -4.5 -1.9 -4.6 -5.8 -0.5 -3.3 3.6 -3.9 3.8 -10 3.9 l-6.5 0.1 0.6 3.5 c1.7 9 5.8 9.4 11.9 1.3z m69.1 -18.2 c0.3 -0.6 -0.9 -1.2 -2.7 -1.5 -1.8 -0.3 -6.3 -1 -10 -1.6 -9.6 -1.5 -38.7 -3.2 -42.6 -2.5 -1.8 0.3 -7.6 0.1 -13 -0.5 -10.4 -1.1 -27.3 -0.2 -27.9 1.5 -0.2 0.6 2.9 0.9 8.4 0.6 4.9 -0.2 16.9 0.2 26.8 0.8 9.9 0.7 24.8 1.4 33 1.7 8.3 0.2 17 0.8 19.5 1.3 6.4 1.2 7.8 1.2 8.5 0.2z m5.7 -15.2 c1.3 -0.6 4.6 -4.5 7.4 -8.8 l5.1 -7.8 -6.1 0.1 c-3.3 0 -10.1 -0.2 -15.1 -0.6 -4.9 -0.3 -15.1 -1 -22.5 -1.4 -8 -0.4 -14.3 -1.2 -15.5 -2 -1.1 -0.7 -6 -1.6 -11 -1.9 -8.5 -0.6 -14.5 -1.4 -27.5 -3.6 -6.7 -1.1 -7.2 -0.6 -9.5 9.5 -0.9 3.9 -1.8 7.9 -2.1 8.9 -0.4 1.3 0 1.7 1.9 1.7 1.4 0 2.7 0.5 2.9 1.2 0.3 0.9 5.3 1.4 17.9 1.6 9.6 0.3 17.6 0.8 17.9 1.3 0.3 0.5 10.4 1.1 22.4 1.3 12 0.3 22.1 0.8 22.4 1.1 0.9 0.9 9 0.5 11.4 -0.6z m57.3 -24.9 c0.3 -0.5 -0.1 -1 -0.9 -1 -2.2 0 -2.1 -6.8 0.2 -10 2.9 -4.3 9.4 -10 12.1 -10.7 1.3 -0.3 3.9 -1.6 5.8 -2.8 2.8 -2 9.2 -3.9 19.8 -6 1.7 -0.3 4 -1.4 5.3 -2.5 2.7 -2.3 3.9 -7.2 2 -8.7 -2.4 -2 -12.1 -5.4 -12.7 -4.5 -0.3 0.5 -2.2 1.7 -4.1 2.7 -5.9 3 -10.7 7.3 -14.5 13 -3.2 4.9 -4 5.5 -7.1 5.5 -3.3 0 -3.4 -0.1 -3.4 -3.9 0 -3.9 3.7 -12.8 6.9 -16.4 1.8 -2.2 3.9 -11.2 4 -17.5 0.1 -5.1 -2.7 -10 -8.9 -15.6 -4.2 -3.8 -4.4 -3.8 -10.2 -3.2 -8.2 0.8 -12.5 3.9 -15.6 11.3 -3.5 8.2 -3.5 15.2 0.1 22.6 1.5 3.2 2.7 6.2 2.7 6.7 0 0.6 0.4 1 0.9 1 0.5 0 1.3 1 1.7 2.3 0.3 1.2 2.2 5.4 4 9.4 2.1 4.4 3.4 8.6 3.4 11.2 0 3.7 -0.2 4.1 -2.5 4.1 -2 0 -2.5 0.5 -2.5 2.5 0 2 -0.5 2.5 -2.7 2.6 -2.6 0 -2.6 0.1 -0.6 0.9 1.1 0.5 3.4 2.5 5 4.4 2.4 3.1 3.4 3.6 7 3.6 2.3 0 4.5 -0.4 4.8 -1z m-50.7 -8.2 c4 -2 6.3 -2.3 15.6 -2.2 7.5 0.1 10.2 -0.2 9 -0.9 -1.1 -0.5 -2.4 -1.6 -3.1 -2.4 -1.8 -2.2 -17.8 -5.5 -24.6 -5.1 -4.6 0.4 -6.3 1 -8.7 3.3 -3.6 3.5 -3.6 6.4 0 8.2 3.6 1.8 6.5 1.6 11.8 -0.9z m102 -0.4 c3.6 -2.5 2.5 -5.4 -3.1 -8.2 -5.5 -2.9 -14.9 -3.2 -19.8 -0.7 -1.5 0.8 -3.6 1.5 -4.7 1.5 -1 0 -2.7 0.9 -3.9 1.9 -1.1 1 -3.4 2.6 -5.1 3.5 -4 2 -4.1 2.7 -0.4 1.6 7 -1.9 18.6 -2 25.7 -0.1 8.8 2.4 8.6 2.4 11.3 0.5z m-72.5 -16.2 c-1 -1.6 -3.1 -4.9 -4.8 -7.5 -2.1 -3.2 -4.3 -5.1 -7 -6.2 -2.2 -0.9 -4.2 -2 -4.5 -2.4 -3.6 -5 -12.2 -6.6 -17.9 -3.3 -3.2 1.7 -5.6 6.7 -4.6 9.4 1.1 2.8 6.1 4.8 12.1 4.8 6.1 0 10.5 1.1 16.9 4.1 2.2 1 4.6 1.9 5.3 1.9 0.6 0 1.2 0.5 1.2 1 0 0.6 0.9 1 2 1 1.1 0 2 0.6 2.1 1.3 0 0.9 0.2 0.9 0.6 -0.1 0.2 -0.7 -0.4 -2.5 -1.4 -4z"/>
  <path d="M357.6 273.8 c-0.2 -0.7 -0.9 -4.4 -1.5 -8.3 -4.4 -29.3 -4.5 -29.6 -6.8 -32.1 -1.2 -1.3 -2.5 -4.1 -2.8 -6.2 -0.3 -2 -1 -5.7 -1.6 -8.2 -0.6 -2.5 -1.7 -7.3 -2.4 -10.7 -0.8 -3.4 -1.9 -7.2 -2.5 -8.4 -1.4 -2.6 -0.5 -13.9 1.3 -16.2 1.5 -1.9 7.1 -3.7 11.3 -3.7 5.9 0 7 4.5 9.4 37.5 0.5 8.3 1 18 1 21.7 0 3.7 0.7 9.7 1.5 13.3 0.9 3.9 1.5 9.9 1.3 14.3 l-0.3 7.7 -3.8 0.3 c-2.4 0.2 -3.9 -0.1 -4.1 -1z"/>
  <path d="M374.6 265.8 c-1 -3.1 -3.1 -45.8 -3 -59.6 0.1 -12.8 0.4 -15.9 2 -19.2 l1.9 -4 6.2 0 c7.6 0 8.3 0.9 8.3 11.2 0 7.5 -1.8 26.1 -2.8 28.8 -1.3 3.5 -4.3 24.3 -4.8 33.8 l-0.7 10.2 -3.4 0 c-1.8 0 -3.5 -0.6 -3.7 -1.2z"/>
  <path d="M330.4 253.3 c-0.9 -2.7 -2.9 -7.7 -4.4 -11.3 -3.4 -8 -6 -16.5 -6 -19.6 0 -1.3 -0.4 -2.4 -0.9 -2.4 -0.5 0 -1.6 -2.1 -2.4 -4.7 -0.8 -2.7 -2.7 -8.1 -4.1 -12.2 -2 -5.4 -2.6 -8.8 -2.4 -13 l0.3 -5.6 4.8 -0.9 c6.3 -1.1 8.8 -0.3 11.2 3.6 2.4 4 3.1 7.3 4.9 25.3 0.8 7.7 2.2 16.6 3 19.8 3.7 13.5 4.6 17.4 4.6 21.5 0 4.1 -0.1 4.2 -3.4 4.2 -3.2 0 -3.6 -0.3 -5.2 -4.7z"/>
 </g>
 <g fill="#ff0000">
  <path d="M308.5 343.3 c-1.6 -0.2 -6.1 -1.3 -9.8 -2.4 -6.7 -2 -6.8 -2.1 -6.4 -5.2 0.2 -2.1 1.1 -3.6 2.6 -4.3 2.4 -1.2 4.9 -3.4 3.9 -3.4 -0.3 0 -2.5 0.9 -4.9 2 -2.4 1.1 -6.4 2 -8.8 2 -3.8 0 -4.2 -0.2 -3.1 -1.5 1.9 -2.3 0.5 -3 -2.2 -1.1 -1.2 0.9 -3.6 1.6 -5.2 1.6 -2.8 0 -2.9 -0.1 -1 -1.5 1.6 -1.2 1.7 -1.6 0.5 -2.4 -0.8 -0.5 -2 -0.7 -2.8 -0.4 -0.7 0.3 -1.3 -0.1 -1.3 -0.9 0 -0.8 -1.8 -3.4 -4.1 -5.7 -5.4 -5.7 -10 -16 -10.5 -23.4 -0.5 -7.3 1.8 -20 6.3 -34.2 2.7 -8.7 3.3 -12.2 3 -16.6 -0.4 -5.8 -2.6 -10.3 -5.9 -12 -1.5 -0.8 -1.8 -1.9 -1.6 -4.7 0.4 -5.1 5.1 -8.2 12.4 -8.2 3 0 5.4 -0.4 5.4 -1 0 -0.6 2.6 -1 5.9 -1 5.2 0 6.2 0.3 7.9 2.5 1.1 1.4 2.3 4.5 2.7 7.1 0.3 2.5 0.8 5.4 1 6.4 0.3 1.8 -0.7 9.9 -1.9 14.9 -0.5 2.2 0.3 4.8 3.7 11.9 0.8 1.7 1.9 2.2 4.6 2.2 4.2 0 7.2 -2.2 9.4 -6.6 1.9 -3.7 2.6 -25.8 1 -28.9 -0.6 -1.1 -1.3 -4 -1.7 -6.4 -0.7 -4.8 -4.4 -16.3 -5.5 -17.1 -0.3 -0.3 -1.2 -2.3 -2 -4.5 -0.7 -2.2 -3.8 -7.5 -6.7 -11.8 -4.5 -6.6 -5.4 -8.6 -5.4 -12.2 0 -2.4 0.4 -4.6 0.9 -4.9 0.4 -0.3 4.6 -0.8 9.2 -1.1 44.7 -3 65.2 -4.9 79.4 -7.5 11.9 -2.2 20.8 -3.1 21.5 -2.3 1 1 4.7 20.2 7 36.8 1.4 10 1.7 17.7 1.5 33.5 -0.2 11.3 -0.4 21.4 -0.5 22.5 -0.2 1.9 -2.2 9 -7.1 25 -1.2 3.9 -2.1 8 -2.1 9.3 -0.1 2.7 -1.6 3.8 -3.1 2.3 -0.6 -0.6 -2.4 -1.1 -3.9 -1.1 -1.6 0 -4.5 -0.7 -6.6 -1.6 -7.6 -3.2 -15.2 -5.5 -16.2 -4.9 -0.5 0.3 -2 -0.1 -3.2 -0.9 -1.3 -0.7 -5.4 -1.7 -9.3 -2.1 -3.8 -0.4 -7.5 -1.1 -8.2 -1.7 -0.7 -0.5 -2.1 -0.7 -3.3 -0.3 -1.2 0.4 -2.7 0.1 -3.5 -0.5 -1.4 -1.1 -20.3 -0.9 -25.5 0.3 -1.4 0.3 -6.1 1.2 -10.5 2 -8.1 1.5 -13.7 3.3 -18.9 6 -1.6 0.9 -3.3 1.4 -3.8 1.1 -0.4 -0.3 -0.8 0.2 -0.8 1 0 0.8 0.4 1.7 0.9 2 0.4 0.3 1.1 2 1.5 3.8 0.6 2.8 0.8 3.1 1.7 1.5 0.6 -0.9 0.7 -2.2 0.4 -2.7 -0.3 -0.6 0 -1 0.8 -1 0.8 0 3.4 -1.1 5.8 -2.4 5.3 -2.9 10.8 -4.5 18.6 -5.2 3.2 -0.3 7 -0.7 8.5 -0.8 3.1 -0.4 24.3 1 27.3 1.7 1.1 0.3 4.3 1 7 1.7 12.1 2.8 14.2 3.4 17.5 5.3 1.9 1.2 3.7 2.4 4 2.8 0.3 0.4 3 1.8 6 3.2 3 1.4 6.5 3.4 7.7 4.4 1.3 1 3.4 2.6 4.8 3.6 3.9 2.8 3.3 4.8 -1.1 3.6 -4.4 -1.3 -6.8 0.1 -12.2 7 -2 2.6 -6.6 7 -10.2 9.7 -8.1 6.1 -24 14.2 -31 15.9 -5.6 1.3 -25.7 2.5 -30.5 1.8z m54.5 -77.1 c0 -2.6 -0.5 -6.5 -1.1 -8.7 -0.6 -2.2 -1.4 -10.5 -1.9 -18.5 -0.5 -8 -1.1 -17.2 -1.4 -20.5 -0.3 -3.3 -0.8 -10.2 -1.1 -15.3 -0.5 -10.3 -1.1 -13.4 -3.2 -17.4 -1.5 -3.1 -3.3 -3.7 -3.3 -1.2 0 1.2 -0.3 1.4 -1.2 0.6 -2 -1.5 -5.7 0.4 -6.4 3.3 -0.3 1.4 -0.4 2.9 0 3.2 0.3 0.3 0.1 1.2 -0.5 1.9 -0.7 0.9 -0.7 1.9 0.1 3.4 0.6 1.2 1.7 4.9 2.5 8.3 0.7 3.4 1.8 8.2 2.4 10.7 0.6 2.5 1.3 6.1 1.6 8.1 0.3 1.9 1.2 4.4 2 5.5 1.3 1.8 1.4 1.8 0.8 -0.6 -0.4 -1.7 -0.2 -2.2 0.5 -1.5 0.9 0.9 2.9 12.3 6.4 35 1.3 8.9 1.6 9.8 2.8 9 0.5 -0.3 1 -2.7 1 -5.3z m17.4 -25.7 c0.4 -1.6 0.8 -3.9 1 -5 0.3 -1.1 0.8 -4.7 1.1 -8 0.4 -3.3 1.1 -6.4 1.5 -7 0.4 -0.5 1.1 -4.4 1.4 -8.5 2.2 -24.2 2 -26 -3.7 -26 -2.7 0 -3.5 0.6 -4.9 3.8 -1 2 -1.8 5.3 -1.9 7.2 -0.3 6.3 0.1 22.4 0.6 26.5 0.3 2.2 0.7 8.1 0.9 13 0.1 5 0.4 9.2 0.5 9.5 0.1 0.3 0.2 4 0.1 8.2 -0.2 11.9 1.4 11.8 2.2 -0.2 0.4 -5.8 0.9 -11.8 1.2 -13.5z m-45.8 6.9 c-0.8 -3.3 -2.4 -9.4 -3.5 -13.7 -1.1 -4.2 -2.3 -11.9 -2.6 -17 -1.4 -22.9 -4.7 -31.2 -11.7 -29.8 -3 0.6 -3.3 1 -3.2 4.2 0.1 4 0.3 4.5 4.5 16.7 1.8 5 3.8 9.2 4.5 9.2 0.7 0 1 0.8 0.7 2 -0.6 2.3 1.9 11.1 5.7 20 1.5 3.6 3.5 8.7 4.5 11.5 2.4 6.4 3 4.5 1.1 -3.1z m-57.7 -20.7 c0.8 -1 0.7 -1.7 -0.1 -2.5 -1.8 -1.8 -3.8 -1.4 -3.8 0.6 0 3.2 2 4.2 3.9 1.9z"/>
  <path d="M162 341.5 c-1.4 -0.8 -6.3 -2.4 -11 -3.6 -5.7 -1.5 -9.6 -3.2 -11.8 -5.1 -2.3 -2 -4 -2.7 -5.3 -2.3 -1.1 0.4 -2.6 0.1 -3.4 -0.5 -0.8 -0.6 -1.8 -0.9 -2.4 -0.6 -2 1.3 -4 -0.6 -3.7 -3.4 0.4 -3.9 -0.7 -5.6 -2.5 -3.7 -3.2 3.1 -5.4 -1 -2.3 -4.4 1.5 -1.7 1.5 -1.8 -1.5 -0.6 -2.7 1 -3.4 0.8 -6 -1.1 -1.7 -1.2 -3.9 -2.2 -4.9 -2.2 -2.7 0 -3.7 -4.1 -1.4 -5.7 0.9 -0.7 2.4 -1.8 3.2 -2.6 2.8 -2.5 9.5 -5.9 16.5 -8.4 3.8 -1.3 8.4 -3 10 -3.8 5.5 -2.5 23.7 -6.5 31.5 -7 31.4 -2.1 33.9 -1.8 40.8 4 l3 2.5 1 -4.2 c0.6 -2.3 0.9 -4.5 0.6 -5 -0.3 -0.4 -2.2 -0.8 -4.2 -0.8 -2 0 -5 -0.7 -6.6 -1.5 -1.5 -0.8 -3.2 -1.3 -3.7 -1 -0.4 0.3 -1.8 0 -2.9 -0.7 -1.5 -0.9 -2.3 -1 -2.8 -0.2 -0.5 0.8 -3.3 0.8 -9.6 0.2 -6.1 -0.7 -9.6 -0.6 -11 0.1 -1.2 0.6 -3.7 1 -5.6 1 -6.7 -0.2 -19.5 0.7 -20.7 1.4 -0.7 0.4 -4.5 1.2 -8.5 1.6 -4 0.5 -9.3 1.6 -11.8 2.6 -15 5.7 -18.4 6.8 -23.1 7.2 -3.3 0.3 -4.9 0 -5.8 -1.1 -0.8 -0.9 -1 -1.6 -0.6 -1.6 0.5 0 0.1 -0.8 -0.7 -1.7 -2.2 -2.6 -6.3 -14.9 -7.4 -22.3 -0.4 -2.5 -1.1 -5 -1.6 -5.7 -1.3 -1.6 -1.9 -21.5 -0.7 -23.3 0.7 -1.2 0.9 -1.2 0.9 -0.1 0 1 0.8 1.2 3.3 0.6 1.7 -0.4 3.9 -0.8 4.7 -0.9 0.8 -0.1 3.1 -0.7 5 -1.4 2.1 -0.7 4.6 -0.9 6.4 -0.4 1.5 0.4 6.3 0.4 10.5 0 4.2 -0.4 10.6 -0.8 14.4 -0.9 3.7 -0.1 7 -0.5 7.3 -1 0.3 -0.5 -0.4 -0.9 -1.5 -0.9 -2.8 0 -3.1 -1 -1.6 -4.7 1.2 -2.8 1.8 -3.1 7.5 -3.8 3.4 -0.4 6.3 -0.5 6.5 -0.3 0.3 0.2 -1.8 2.7 -4.7 5.4 l-5.1 4.9 9.5 0.6 c5.2 0.4 10.3 0.9 11.4 1.3 1 0.3 2.6 0.1 3.4 -0.5 1.2 -0.9 1.1 -1 -0.7 -0.6 -1.2 0.3 -3 -0.1 -4 -0.8 -1.6 -1.2 -1.2 -1.4 2.9 -2 5.7 -0.9 7.3 -0.4 7.3 2.1 0 1.5 0.8 2 4.3 2.2 3.1 0.2 4.4 -0.1 4.8 -1.2 0.9 -2.5 3.9 -1.9 5.2 0.9 0.7 1.4 1.2 4.5 1.2 6.8 0.1 2.3 0.9 6 2 8.2 1.1 2.2 1.9 4.8 2 5.7 0 1 0.3 1.7 0.8 1.6 0.4 -0.1 1.9 0.6 3.4 1.6 3.6 2.4 7.6 1.7 10.2 -1.7 1.8 -2.5 2.2 -4.6 2.6 -17.5 0.4 -12.4 0.8 -15.2 2.6 -18.2 1.8 -3.2 2.4 -3.5 7.2 -3.8 3.3 -0.2 6.4 0.3 8.4 1.2 1.7 0.9 4.5 1.6 6.3 1.6 5.1 0 6.9 2.8 6.2 9.6 -0.4 3.9 -1.3 6.4 -2.9 8.1 -1.8 1.9 -2.2 3.5 -2.2 7.7 0.1 4.7 2.5 13.3 4.4 16.1 0.4 0.6 1.1 2.8 1.5 5 0.5 2.2 1 4.7 1.2 5.5 2.1 7.2 2.5 15.3 1.1 22.9 -0.9 4.5 -1.2 8.1 -0.7 8.1 0.5 0 -0.3 2.1 -1.6 4.6 -1.4 2.6 -2.5 5.3 -2.5 6.1 0 2.8 -9.5 11.6 -15.7 14.6 -3.5 1.6 -6.3 3.3 -6.3 3.7 0 0.7 -2.5 1.8 -11.5 5.3 -6.8 2.7 -14.1 3.7 -25.3 3.6 -6.9 -0.1 -11.6 -0.6 -13.2 -1.4z m62 -114.4 c0 -2.5 -1 -3.2 -3.1 -2 -1.5 0.8 -1.7 1.4 -0.9 2.9 1.2 2.3 4 1.6 4 -0.9z"/>
  <path d="M108 234 c0 -0.6 2.4 -1 5.7 -1 6.8 0 6.6 0.5 -0.4 1.4 -3.4 0.4 -5.3 0.3 -5.3 -0.4z"/>
  <path d="M108.7 228.3 c-0.4 -0.3 -0.7 -1.9 -0.7 -3.5 0 -1.6 -0.5 -2.8 -1.3 -2.8 -0.7 0 -2.5 -0.6 -4 -1.2 -2.1 -1 -2.7 -2 -2.7 -4.5 0 -3.1 0.2 -3.3 3.4 -3.3 4.4 0 6.6 0.9 6.6 2.6 0 1.5 0.1 1.5 3.7 1.9 3.8 0.4 5.3 2.4 5.3 7.1 l0 4.4 -4.8 0 c-2.7 0 -5.2 -0.3 -5.5 -0.7z"/>
  <path d="M147.5 195 c-2.7 -0.4 -7.7 -0.6 -11 -0.5 -3.3 0.2 -4.8 0.1 -3.2 -0.2 8.8 -1.4 -4.6 -3.3 -23.5 -3.3 -5.9 0 -9.8 -0.4 -9.8 -1 0 -0.5 -0.6 -1 -1.4 -1 -0.7 0 -1.9 -0.7 -2.7 -1.6 -1.1 -1.3 -1 -3 0.5 -10.2 1 -4.8 2.5 -10.4 3.3 -12.4 1.6 -4.1 3.5 -4.7 8.9 -2.8 3.7 1.3 13.6 2.7 28.8 4.1 6.6 0.6 12.9 1.6 14 2.2 1.2 0.7 4.4 1.2 7.1 1.3 2.8 0 8.4 0.4 12.5 0.8 10.7 1 26.7 1.8 32.3 1.6 l4.7 -0.1 0 4.3 c0 3.5 -0.8 5.4 -4.5 10.2 -2.4 3.3 -5.1 6.3 -5.8 6.7 -0.7 0.5 -10.8 0.9 -22.3 1 -11.5 0.1 -21.3 0.4 -21.9 0.8 -0.5 0.4 -3.2 0.4 -6 0.1z"/>
  <path d="M239.2 168.4 c-1.2 -0.8 -2.9 -2.8 -3.7 -4.4 -1.7 -3.3 -2.1 -9.5 -0.5 -8.5 0.5 0.3 0.7 0 0.4 -0.8 -0.3 -0.8 -0.1 -1.8 0.5 -2.2 0.6 -0.3 1.1 -1.5 1.1 -2.6 0 -2.4 0.9 -2.4 2.6 -0.1 2.5 3.2 1.5 -0.8 -2 -8.1 -1.8 -4 -3.7 -8.2 -4 -9.4 -0.4 -1.3 -1.2 -2.3 -1.7 -2.3 -0.5 0 -0.9 -0.4 -0.9 -1 0 -0.5 -1.2 -3.5 -2.7 -6.7 -2.4 -5 -2.8 -7 -2.8 -14.3 0.1 -7.3 0.5 -9.3 3 -14.6 4.1 -8.4 7.4 -10.5 18.1 -11.2 l8.3 -0.5 5.1 4.3 c2.8 2.3 5.7 5.5 6.5 7.1 2.1 4.1 2 20.1 -0.1 23.4 -1 1.5 -1.4 3.4 -1 4.9 0.3 1.4 0.2 2.8 -0.4 3.1 -1.4 0.9 -7.1 12.6 -6.7 13.9 0.2 0.5 2 -1.6 4.1 -4.7 4.1 -6.1 8.9 -10.5 14.9 -13.3 2 -1 3.7 -2.1 3.7 -2.6 0 -2.6 14.1 0.8 16.8 4 1.5 1.9 1.6 7.8 0.2 11.9 -1.3 3.5 -5.2 5.5 -15.5 7.8 -3.8 0.9 -8.1 2.1 -9.5 2.8 -7.3 3.5 -14.8 9.5 -18.2 14.6 -2.8 4 -2.1 4.8 1.3 1.5 l3 -2.9 -1 2.8 c-2 5.1 -4 8.5 -5.6 9.1 -3.1 1.2 -11.1 0.6 -13.3 -1z"/>
  <path d="M186.8 161.8 c-2.8 -1 -3.4 -2.5 -2.9 -7.8 0.5 -5.8 9.6 -10.7 17.8 -9.5 2.1 0.3 5.6 0.7 7.8 0.9 2.2 0.3 6.3 1.1 9 1.8 4.9 1.4 5 1.5 5.3 5.6 0.3 3.7 0.1 4.2 -1.8 4.2 -2.7 0 -16.2 4 -17.4 5.1 -1.3 1.2 -14.4 1 -17.8 -0.3z"/>
  <path d="M288 159.8 c-1.4 -0.5 -5.9 -1.5 -10 -2.2 l-7.5 -1.2 -0.3 -3.7 c-0.2 -2.4 0.1 -3.8 1 -4.1 0.7 -0.1 2.9 -0.9 4.8 -1.6 1.9 -0.7 7 -1.7 11.3 -2.2 13.3 -1.5 20.7 2.3 20.7 11 0 1.5 -0.5 3.3 -1.2 4 -1.5 1.5 -15.3 1.5 -18.8 0z"/>
  <path d="M225 147.1 c0 -0.6 -0.6 -1.1 -1.2 -1.1 -0.7 0 -3.1 -0.9 -5.3 -1.9 -6.5 -3.1 -13.7 -5.1 -18.2 -5.1 -4.6 0 -9.4 -1.5 -10.5 -3.3 -1.1 -1.7 -1 -7.9 0.2 -11.3 2.4 -6.8 17 -9.4 24.4 -4.3 2 1.3 3.6 2.7 3.6 3 0 0.4 1.9 1.4 4.3 2.3 2.8 1.1 4.9 2.8 6.5 5.3 1.3 2.1 3.3 5.2 4.6 7 1.8 2.5 2.2 4 1.7 6.5 -0.6 3.1 -0.9 3.3 -5.4 3.6 -2.8 0.2 -4.7 -0.1 -4.7 -0.7z"/>
 </g>
 <g fill="#044df6">
  <path d="M159.4 480.2 c-1.2 -0.7 -1.2 -5 0.2 -34.2 0.8 -17.8 0.8 -54.3 -0.1 -57.1 -0.6 -1.7 -1.2 -1.9 -3.3 -1.4 -1.5 0.4 -3.3 0.8 -3.9 0.8 -0.7 0 -1.3 0.4 -1.3 0.9 0 0.4 -0.8 0.8 -1.9 0.8 -2.9 0 -3.4 -5.7 -0.7 -7.5 17.8 -11.3 28.6 -16.1 28.6 -12.6 0 0.6 0.9 2 2 3.1 1.8 1.8 1.9 3.6 2.1 30.2 0 15.6 0.1 31.5 0 35.3 -0.1 3.9 0.3 10.5 0.7 14.8 l0.8 7.8 -6.9 6.7 c-3.8 3.7 -8.3 8.2 -10 10 -3.1 3.3 -4.3 3.7 -6.3 2.4z"/>
  <path d="M302.6 476.3 c0.3 -1.6 0.9 -4.8 1.4 -7.3 0.5 -2.5 1.4 -6.5 2 -9 3.8 -15.5 5.3 -32.1 3.7 -40.2 -0.8 -3.8 -2.3 -4.3 -7.1 -2.3 -2.1 0.9 -5.1 -0.5 -5.1 -2.4 0 -2.5 21.3 -16 26.4 -16.8 2 -0.3 4.3 -0.9 5.1 -1.3 0.9 -0.5 2.4 -0.2 3.5 0.6 1.9 1.4 2 2.8 2 31.2 0.1 29 -0.3 34.2 -2.5 34.2 -0.6 0 -2.6 1.1 -4.4 2.5 -1.8 1.4 -4 2.5 -4.8 2.5 -0.8 0 -4.8 2.5 -8.9 5.5 -8.4 6.2 -12.3 7.2 -11.3 2.8z"/>
  <path d="M120.7 476.4 c-3.8 -1.3 -9.8 -5.7 -14.9 -10.8 -2.1 -2.1 -2.8 -3.8 -2.8 -6.7 0 -4.9 -1.3 -4.9 -4.4 -0.1 -1.3 2 -4.3 6.7 -6.6 10.4 l-4.2 6.7 -5.7 -0.4 c-3.1 -0.2 -15.5 -1 -27.6 -1.6 -22.3 -1.1 -26.8 -1.7 -34.1 -4.7 -5.9 -2.3 -6.6 -4.6 -3.2 -10.5 3.3 -5.7 4.4 -7.1 8.1 -10.6 1.5 -1.4 4.9 -4.8 7.5 -7.6 9.8 -10.3 21.4 -21.5 22.3 -21.5 0.5 0 0.9 -0.6 0.9 -1.4 0 -0.8 0.7 -1.6 1.5 -2 0.8 -0.3 1.5 -1 1.5 -1.6 0 -0.7 -4.4 -1 -13 -0.8 -7.2 0.2 -13 -0.1 -13 -0.5 0 -0.4 -0.6 -0.7 -1.3 -0.6 -2.3 0.3 -7.2 -1.3 -9.5 -3.1 -2.7 -2.2 -2.5 -7 0.5 -10.3 1.1 -1.2 4.1 -5.3 6.7 -9.2 7.6 -11.5 7 -10.9 9.1 -9.7 1.2 0.6 2 2.2 2.1 4.2 0.1 1.7 0.4 3.4 0.8 3.7 3.6 3.6 46.3 1.1 54.8 -3.2 3.2 -1.5 3.4 -1.5 5.1 0.6 2.7 3.4 2.9 3 -7.7 12.4 -4.4 3.9 -10.6 10.2 -13.9 14 -3.3 3.9 -10.1 11.3 -15.1 16.5 -5 5.2 -9.8 11.2 -10.7 13.2 -2.9 6.2 -1.7 6.6 21.7 7.2 18.7 0.4 24.3 -0.1 21.5 -1.8 -0.6 -0.4 -1.1 -1.7 -1.1 -2.9 0 -3.4 8.6 -19.8 13 -24.7 10 -11.2 12.4 -12.9 22.3 -15.5 14.2 -3.7 23.9 2 22.2 13.1 -0.5 3.6 -1.7 5.4 -6.9 10.6 -7.4 7.4 -17.9 13.7 -23.3 14.1 -2.4 0.2 -2.8 -0.2 -3.1 -2.5 -0.3 -2.2 0.2 -3 2.1 -3.7 4 -1.5 9.7 -7.1 9.7 -9.5 0 -4.5 -1.2 -6.4 -5.1 -7.9 -5.9 -2.3 -8.4 -0.7 -9.9 6.3 -1.6 7.3 0 15.7 4.1 22.5 2.5 4.1 4.2 5.6 8.8 7.8 3.2 1.5 6.2 2.7 6.8 2.7 0.6 0 4.5 -2.3 8.6 -5.1 13.1 -8.8 15.5 -4.5 4.1 7.3 -16.4 16.9 -21.2 19.8 -28.7 17.2z"/>
  <path d="M407.8 476.3 c-1.9 -2.4 -7.8 -11.8 -7.8 -12.6 0 -1.2 -8.7 -14.2 -10.6 -15.8 -1 -0.9 -4.6 -3.2 -7.9 -5 -5.3 -3 -6.9 -3.4 -13 -3.3 -3.8 0 -8.2 0.3 -9.7 0.7 -5.8 1.5 -3.8 8.1 3.5 11.8 4.3 2.2 10.6 2.2 18.2 0 7.9 -2.4 8.3 -2.4 9.5 -0.1 1 1.9 0.8 2.6 -1.7 5.1 -1.5 1.5 -3.3 2.9 -4 2.9 -0.6 0 -2.4 1.5 -4 3.4 -3.2 3.9 -11.5 9 -16.1 10.1 -4.5 0.9 -9.2 -0.7 -15.7 -5.5 -6 -4.4 -9.5 -10.4 -9.5 -16.1 0 -10.2 15.6 -26.2 28.1 -28.8 5 -1.1 5.6 -1.4 5.1 -3.3 -0.8 -3.3 -8.8 -10.4 -13 -11.6 -2.2 -0.7 -5.3 -0.9 -7 -0.6 -2.4 0.5 -3.2 0.2 -4.2 -1.6 -0.7 -1.2 -0.8 -2.6 -0.3 -3 1.8 -1.9 22.7 -12 24.6 -12 3.8 0 9.2 2.5 11.6 5.3 5 5.9 12.9 17.5 16.2 23.7 1.9 3.5 4.4 7.6 5.7 9 2 2.3 2.3 2.9 2.1 4.6 0 0.3 0.6 1.1 1.4 1.7 2.2 1.7 15.7 24.8 15.7 26.8 0 2.9 -12.1 15.9 -14.7 15.9 -0.6 0 -1.7 -0.8 -2.5 -1.7z"/>
  <path d="M209 475.3 c-8.5 -2.8 -14.8 -7.9 -19 -15.6 -6.4 -11.7 -8 -26.3 -3.8 -34.1 4.7 -8.6 14.4 -20.8 19.7 -24.8 4.7 -3.4 21 -4.8 23.9 -2.1 0.7 0.7 2.2 1.3 3.2 1.3 1 0 3.5 1.9 5.5 4.1 3.6 4 3.7 4.4 3.2 9.7 -0.5 5 -1 5.9 -5.9 10.5 -8 7.6 -14.8 12.7 -16.8 12.7 -1 0 -2 0.4 -2.2 0.8 -0.1 0.5 -1.5 1.2 -3 1.6 -2.4 0.5 -2.8 0.3 -3.4 -2 -0.5 -2.1 0.1 -3.3 3.3 -6.7 2.2 -2.3 4.8 -5.8 5.7 -7.7 1.6 -3.4 1.6 -3.5 -0.6 -5.3 -5.5 -4.4 -12.5 -4.6 -15.3 -0.4 -1.7 2.6 -1.3 13 0.5 15.2 0.7 0.8 1.3 2.6 1.4 4 0.2 1.4 2.2 4.3 4.5 6.6 2.2 2.2 4.1 4.7 4.1 5.5 0 1.1 1.4 1.3 6.8 1 6.6 -0.5 15.9 -4.2 20.4 -8.3 1.3 -1.1 2.1 -1.2 3.7 -0.3 3 1.5 2.6 4.2 -1.2 8.7 -1.7 2.1 -4.1 4.9 -5.2 6.2 -5.2 6.4 -12.7 13.9 -15.2 15.1 -1.6 0.8 -3.9 2.2 -5.2 3.2 -2.3 1.7 -6 2.2 -9.1 1.1z"/>
  <path d="M429.4 473.2 c-0.7 -0.4 -1.2 -4.1 -1.3 -9 0 -4.6 -0.6 -10.1 -1.2 -12.3 -0.9 -2.9 -0.9 -4.3 -0.1 -5.1 0.8 -0.8 0.7 -1.7 -0.4 -3.3 -1.2 -1.8 -1.4 -4.2 -0.9 -10.3 0.5 -7.9 -0.8 -21 -2.3 -23.8 -0.7 -1.2 -1.5 -1 -4.4 1 l-3.6 2.4 -2.1 -2.2 c-1.2 -1.2 -2.1 -2.4 -2.1 -2.7 0 -0.2 1.7 -1.3 3.8 -2.4 2 -1.1 4.6 -2.8 5.6 -3.8 2.4 -2.1 8.9 -5.2 13.7 -6.5 7.8 -2.1 13.9 3.4 13.9 12.5 0 2.4 0.3 4.3 0.8 4.3 0.4 0 3.6 -3 7.2 -6.6 10.4 -10.5 14.1 -11.6 20.7 -5.9 2.7 2.3 5 5.6 6.9 10.1 l2.8 6.6 -3.4 3 c-8.6 7.2 -16.5 12.8 -17.9 12.6 -0.9 -0.2 -1.8 -1.8 -2.2 -3.8 -0.6 -4 -3.1 -9.1 -5.3 -10.9 -1.1 -1 -1.9 -1 -3.4 0 -3.7 2.3 -4.6 7.7 -3.9 24.6 l0.6 15.8 -4.7 4.2 c-2.6 2.3 -6.8 6 -9.3 8.2 -4.8 4.2 -5.6 4.6 -7.5 3.3z"/>
  <path d="M276 470 c-3.6 -0.4 -11.4 -1 -17.5 -1.4 -14.5 -0.8 -18.5 -1.9 -18.5 -5.2 0 -2.8 2.3 -7.8 4.9 -10.6 1 -1 2.4 -3 3.1 -4.3 0.7 -1.4 4.1 -5.3 7.4 -8.8 7.7 -7.8 15.6 -16.9 15.6 -17.8 0 -0.3 -5.4 -0.8 -12.1 -1.1 -16.2 -0.7 -16.4 -0.9 -11.4 -12 4.9 -10.6 11.3 -17.1 9.9 -10 -0.7 3.3 -1.6 3 12.4 3.2 9.9 0.1 13.4 -0.3 18.4 -2.2 3.5 -1.3 7.4 -0.3 8.8 2.2 0.9 1.7 0.2 3 -5.7 9.3 -5.6 6 -15.6 17.7 -19.1 22.2 -0.4 0.6 -2 3.2 -3.6 5.8 -4.1 7.1 -3.2 7.7 11.9 7.7 8.9 0 13 -0.4 15.1 -1.5 3.4 -1.7 9 -2 9.9 -0.4 0.4 0.5 0 1.8 -0.8 2.7 -2.7 3 -8.1 11.6 -11.1 17.5 -2.8 5.6 -2.9 5.7 -7 5.6 -2.2 -0.1 -7 -0.5 -10.6 -0.9z"/>
  <path d="M307.6 392.8 c-4.9 -5 -8.1 -11.5 -6.7 -13.5 1 -1.5 14.4 -8.3 16.3 -8.3 1.1 0 2 1 2.4 2.8 0.9 4.5 2.4 6.8 5.5 8.6 5.2 3.1 3.2 7 -6.5 12.5 l-5.8 3.3 -5.2 -5.4z"/>
  <path d="M62.6 383.3 c-0.1 -0.1 -1.5 -0.4 -3.1 -0.7 -2.7 -0.5 -5.5 -2.9 -5.5 -4.6 0 -0.4 -1.7 -1.6 -3.7 -2.8 -2.1 -1.2 -4.9 -3 -6.3 -4.1 l-2.5 -2 2.9 -3 c4.4 -4.6 7.6 -4.2 14.6 1.9 l5.7 4.9 7.9 -6.3 7.9 -6.4 4.5 3.3 c2.5 1.7 5.3 3.5 6.3 3.8 2.5 0.9 2.1 2.6 -0.8 3.3 -3 0.7 -12.9 7.1 -16.4 10.5 -1.8 1.7 -3.7 2.3 -6.9 2.4 -2.4 0 -4.4 -0.1 -4.6 -0.2z"/>
 </g>
 <g fill="#ed0906">
  <path d="M182 342 c0 -1.7 3.8 -3 8.8 -3 3.2 0 5.4 -0.5 6.2 -1.5 0.7 -0.8 1.8 -1.5 2.6 -1.5 1.4 0 8.6 -3.9 9.5 -5.2 0.3 -0.4 3.4 -2.2 6.9 -3.9 3.5 -1.7 8 -4.8 10 -7 3.5 -3.8 7 -5.1 7 -2.6 0 1.7 -11.7 13.7 -13.4 13.7 -0.7 0 -2.4 0.8 -3.7 1.9 -6.1 4.8 -33.9 12.3 -33.9 9.1z"/>
  <path d="M155 339 c-0.8 -0.5 -1.1 -1.2 -0.8 -1.6 1 -0.9 5.8 0.4 5.8 1.6 0 1.3 -3 1.3 -5 0z"/>
  <path d="M145.9 336.6 c-1.9 -0.6 -5 -2.3 -6.8 -3.8 -2.3 -2 -3.9 -2.6 -5.6 -2.2 -1.2 0.3 -2.6 0.1 -2.9 -0.5 -0.4 -0.6 -2 -0.8 -3.6 -0.5 -2.7 0.6 -2.9 0.4 -2.8 -2.5 0.1 -3.6 0.1 -3.6 3.1 -1.7 1.2 0.8 4.1 1.7 6.3 2.1 2.5 0.4 5.1 1.6 6.5 3.1 1.2 1.3 2.9 2.4 3.6 2.4 2.1 0 7.3 2.9 7.3 4 0 1.2 -0.4 1.1 -5.1 -0.4z"/>
  <path d="M281.7 332.3 c-0.4 -0.3 -0.2 -1.2 0.5 -2 1.9 -2.3 0.2 -2.5 -3.3 -0.4 -3.1 1.9 -6.9 2.8 -6.9 1.6 0 -0.2 1 -1.4 2.3 -2.7 2.9 -2.9 8.2 -3.6 9.1 -1.2 0.5 1.4 1.5 1.5 5.6 1 5.8 -0.8 6.6 0.5 1.8 2.8 -3.2 1.6 -8 2.1 -9.1 0.9z"/>
  <path d="M270.5 325.2 c0.2 -0.9 0.4 -2.1 0.4 -2.5 0.2 -1.4 1.8 0.2 2.3 2.1 0.4 1.2 -0.1 1.8 -1.2 1.9 -1.2 0.1 -1.7 -0.4 -1.5 -1.5z"/>
  <path d="M118.9 322.9 c-1.1 -0.6 -1.1 -1.3 -0.3 -2.6 1.5 -2.4 3.1 -2.7 3.6 -0.6 0.6 2.4 -1.4 4.4 -3.3 3.2z"/>
  <path d="M263.7 317.5 c-4.8 -6.1 -8.6 -16.4 -8.6 -23 0 -6.4 2.8 -20.2 6.6 -32 2.8 -9 3.4 -12.1 3 -17 -0.4 -5.1 -0.9 -6.3 -3.6 -8.7 -1.9 -1.7 -4.3 -2.8 -6 -2.8 -3.2 0 -5.4 -2 -4.6 -4.1 0.3 -0.8 2 -2.1 3.8 -2.9 1.7 -0.7 5 -2.7 7.2 -4.2 2.2 -1.6 5 -3.6 6.2 -4.4 1.2 -0.9 4.8 -1.8 8 -2.1 5 -0.4 6.3 -0.1 9.3 1.9 4.7 3.2 7.9 9 7.5 13.7 -0.2 2 -0.4 4.2 -0.4 4.9 -0.1 0.6 -0.7 1.2 -1.5 1.2 -1 0 -1.6 -1.9 -2.1 -6.2 -0.4 -3.5 -1.4 -7.1 -2.3 -8 -1.6 -1.9 -8.2 -2.5 -8.2 -0.8 0 0.6 -1 0.8 -2.4 0.4 -1.3 -0.3 -2.7 -0.1 -3.1 0.5 -0.4 0.7 -2 0.9 -4 0.5 -2.3 -0.4 -4.1 -0.1 -5.9 1.1 -3.2 2.2 -3.3 3.4 -0.1 6 2.3 1.8 2.6 2.9 3.2 12.3 0.5 8 0.3 11 -0.9 14 -2.7 6.6 -4.6 13.5 -6.4 23.4 -1.9 11 -1.1 19 2.6 24 1.1 1.5 2 3.1 2 3.7 0 1.4 3.7 9.3 5.6 11.9 1 1.3 1.2 2.2 0.5 2.2 -0.6 0 -3 -2.5 -5.4 -5.5z"/>
  <path d="M111.8 316 c-1.4 -1.1 -4.1 -2 -5.9 -2.1 -4.9 -0.3 -5.3 -0.8 -2.8 -3.5 2.5 -2.6 4.9 -3.2 4.9 -1.1 0 1.9 2.9 4.2 6.4 5.4 1.7 0.5 3.2 1.5 3.4 2.1 0.6 1.9 -3.3 1.4 -6 -0.8z"/>
  <path d="M235 308 c-1.3 -0.8 -1.3 -2.1 0.2 -10.7 1.1 -6.9 1.4 -11.3 0.8 -14.8 -1.2 -7.2 -1.2 -8.5 0.4 -8.5 3.2 0 4.9 14 3.3 26.1 -1 6.7 -2.5 9.3 -4.7 7.9z"/>
  <path d="M97 293.5 c-1.3 -1.4 -2 -2.5 -1.5 -2.5 0.4 0 0.1 -0.8 -0.7 -1.7 -2.2 -2.6 -6.3 -14.9 -7.4 -22.3 -0.4 -2.5 -1.3 -5.2 -2.1 -6.1 -0.9 -1.1 -1.1 -2.3 -0.4 -4 0.9 -2.4 0.9 -2.4 1.6 0.6 0.4 1.7 1 4.1 1.5 5.5 0.5 1.4 1.1 3.9 1.5 5.5 0.7 3.8 3.4 13.1 4.7 16.6 0.5 1.5 2.4 3.4 4.1 4.4 3.2 1.7 3.4 1.6 11.7 -1.3 4.7 -1.7 10.9 -4 13.8 -5.1 5.9 -2.4 14.2 -2.8 14.2 -0.8 0 0.7 -3.6 2.2 -8.7 3.6 -4.9 1.2 -9.7 2.7 -10.8 3.1 -1.1 0.5 -3.4 1.2 -5.2 1.5 -1.8 0.4 -4.8 1.7 -6.8 3.1 -4.5 3 -6.6 3 -9.5 -0.1z"/>
  <path d="M233.6 272.1 c-0.3 -0.5 -0.8 -2.6 -1.2 -4.7 -0.3 -2.2 -1 -4.7 -1.5 -5.6 -1.2 -2.3 -1.1 -5.8 0.1 -5.8 0.6 0 1.5 1.2 2 2.8 0.6 1.5 1.5 3.6 2 4.7 0.5 1.1 1.3 3.7 1.9 5.8 0.8 3.3 0.7 3.7 -0.9 3.7 -1 0 -2.1 -0.4 -2.4 -0.9z"/>
  <path d="M400 264.7 c0 -1.8 2.1 -4.3 4.2 -5 1.4 -0.5 1.5 -0.1 0.7 2.6 -0.5 1.8 -0.9 3.3 -0.9 3.4 0 0.2 -0.9 0.3 -2 0.3 -1.1 0 -2 -0.6 -2 -1.3z"/>
  <path d="M228 252 c0 -0.5 0.7 -1 1.5 -1 0.8 0 1.5 0.5 1.5 1 0 0.6 -0.7 1 -1.5 1 -0.8 0 -1.5 -0.4 -1.5 -1z"/>
  <path d="M405.3 250.4 c2.1 -0.7 2.2 -4 0.2 -6 -2.1 -2.2 -1.9 -7 0.3 -7.6 1.6 -0.5 1.8 0.2 1.7 6.6 0 6.3 -0.2 7.1 -2 7.3 -1.6 0.1 -1.6 0.1 -0.2 -0.3z"/>
  <path d="M227 246.4 c0 -2.8 0.4 -3.5 1.7 -3.2 2.4 0.4 2.5 6.8 0.1 6.8 -1.4 0 -1.8 -0.8 -1.8 -3.6z"/>
  <path d="M84.5 237.5 c0.2 -5.5 0.9 -11.4 1.5 -13 0.6 -1.7 3.9 -5.6 7.3 -8.8 5.4 -5.1 6.7 -5.8 11.4 -6.4 5.2 -0.6 5.3 -0.5 9.3 3.8 l4.1 4.4 2.1 -2.9 c1.2 -1.6 3.6 -3.5 5.4 -4.2 2.8 -1.2 3.8 -1.1 7.1 0.2 3.5 1.5 6.1 4 7.3 7.1 0.4 0.9 1.5 0.5 4 -1.5 6.8 -5.5 13 -6 15.6 -1.1 0.8 1.6 1.9 2.7 2.4 2.4 0.5 -0.3 1.3 0.2 1.8 1.1 0.9 1.6 1.4 1.5 5.6 -1 5.3 -3.1 13.2 -5.7 15.1 -5 0.7 0.3 1.6 0.1 1.9 -0.4 1 -1.7 -6.8 -2.5 -34.9 -3.6 -8.2 -0.3 -19.3 -0.9 -24.5 -1.4 -5.2 -0.4 -15.9 -0.7 -23.8 -0.6 -13.2 0.1 -14.2 0 -13.7 -1.6 0.3 -1.1 0 -2 -1 -2.3 -2.2 -0.9 -0.8 -3.4 2.3 -4.2 3.3 -0.9 36.1 -1.7 37.4 -0.9 0.5 0.3 6.4 0.6 13.1 0.6 6.7 -0.1 18.5 0.6 26.2 1.5 7.7 0.9 15.2 1.6 16.7 1.5 1.5 -0.1 4.3 0.5 6.3 1.4 3.1 1.3 3.5 1.7 2.9 4.2 -0.9 3.8 -1.3 4.2 -3.3 4.2 -1.4 0 -1.7 0.9 -1.7 4.9 0.1 3.9 -0.4 5.4 -2 7 -1.5 1.3 -2.5 1.6 -3.2 0.9 -0.6 -0.6 -1.9 -0.5 -3.9 0.5 -3.3 1.8 -11.3 9.4 -11.3 10.9 0 0.5 -1.3 0.7 -3 0.3 -2 -0.4 -3.7 -0.2 -4.8 0.6 -0.9 0.7 -1.4 1 -1 0.5 0.8 -0.9 -2.5 -3.8 -5.4 -4.9 -1.3 -0.4 -1.8 -1.7 -1.8 -4.1 0 -4.6 -1 -5 -4.5 -1.7 -2.1 1.9 -3.7 2.6 -5.7 2.3 -2.2 -0.3 -3 0.1 -3.9 2.2 -1.8 3.8 -4 2.9 -6.9 -2.7 -1.4 -2.6 -2.8 -4.7 -3.2 -4.7 -0.4 0 -2 1.9 -3.7 4.3 -3.9 5.8 -4.8 6.3 -10.7 7.1 -4.8 0.6 -5.1 0.5 -6.4 -2.1 -0.7 -1.6 -1.5 -4.1 -1.7 -5.8 -0.2 -1.6 -0.9 -3.6 -1.7 -4.3 -1.2 -1.2 -1.8 -0.8 -4.2 2.4 -4.3 5.7 -10.3 11.4 -11.9 11.4 -0.8 0 -1.5 0.7 -1.5 1.5 0 1.7 1.8 1.9 5.3 0.6 1.4 -0.6 2.8 -0.7 3.2 -0.3 0.3 0.4 -1.5 1.3 -4.2 2.2 -4 1.3 -4.9 2 -5.5 4.5 -0.3 1.7 -0.5 -1.5 -0.3 -7z m31.3 -13.1 c-0.2 -0.9 -1.3 -2.3 -2.5 -3.1 -2.1 -1.4 -2.2 -1.3 -1.8 1.4 0.2 1.5 0.4 2.9 0.4 3.1 0.1 0.1 1 0.2 2.2 0.2 1.4 0 1.9 -0.5 1.7 -1.6z m19.7 -8.5 c-0.9 -1.7 -1.9 -2.8 -2.2 -2.5 -0.8 0.8 1.7 5.6 2.9 5.6 0.5 0 0.1 -1.4 -0.7 -3.1z m-21.5 1.3 c0 -0.4 -0.9 -1.3 -2 -2 -1.6 -1 -2 -1 -2 0.2 0 0.8 0.6 1.7 1.3 1.9 1.9 0.8 2.7 0.8 2.7 -0.1z"/>
  <path d="M290.3 246.3 c-1.8 -0.7 -1.6 -3.3 0.2 -3.3 0.8 0 1.5 0.9 1.5 2 0 1.1 -0.1 2 -0.2 1.9 -0.2 0 -0.9 -0.3 -1.5 -0.6z"/>
  <path d="M181 243.6 c0 -0.8 0.6 -1.7 1.3 -1.9 0.7 -0.3 0.6 -0.6 -0.5 -0.6 -0.9 -0.1 -1.9 -0.9 -2.3 -2 -0.4 -1.5 -1.4 -1.8 -4.8 -1.6 -3.9 0.2 -3.9 0.2 -0.7 -0.4 2.8 -0.5 3.6 -1.1 3.8 -3.1 0.5 -3.1 2.1 -5.2 3.4 -4.4 0.6 0.4 1.4 0.1 1.8 -0.7 0.5 -0.7 0.9 2.4 0.9 7.4 -0.1 6.8 -0.4 8.7 -1.5 8.7 -0.8 0 -1.4 -0.6 -1.4 -1.4z"/>
  <path d="M230 239 c-1.2 -0.8 -1.2 -1.1 0.2 -2.7 2.5 -2.9 3.2 -7.8 1.3 -9.7 -2 -2 -2.9 -2 -4.9 -0.1 -1.9 1.9 -2.6 1.9 -2.6 -0.1 0 -1.7 -5.7 -4.4 -9.3 -4.4 -3.4 0 -5.5 2.9 -6.7 9 -1.4 7.4 -3 8.7 -3 2.5 0 -5.8 2.9 -12.9 5.8 -14.4 5.4 -2.9 19.4 -0.2 23.2 4.4 0.8 1 3.4 2.6 5.7 3.6 3.1 1.3 4.3 2.4 4.3 3.9 0 1.5 -0.7 2 -2.6 2 -1.7 0 -3.6 1.2 -5.7 3.5 -3.4 3.8 -3.5 3.9 -5.7 2.5z"/>
  <path d="M98.7 236.4 c2 -0.8 4.4 -1.1 6.5 -0.7 l3.3 0.7 -4 0.7 c-2.2 0.5 -5.1 0.8 -6.5 0.8 -2.3 -0.1 -2.3 -0.2 0.7 -1.5z"/>
  <path d="M360.3 234.5 c0 -2.2 0.2 -3 0.4 -1.7 0.2 1.2 0.2 3 0 4 -0.3 0.9 -0.5 -0.1 -0.4 -2.3z"/>
  <path d="M120.5 236 c-0.4 -0.6 1.4 -1 4.7 -0.9 3.9 0 4.8 0.3 3.3 0.9 -2.8 1.2 -7.3 1.2 -8 0z"/>
  <path d="M140 236 c-5.2 -0.3 -7.9 -0.7 -6 -0.9 6.5 -0.5 18.8 0 21.7 0.9 2.5 0.7 2.3 0.8 -1.7 0.7 -2.5 0 -8.8 -0.4 -14 -0.7z"/>
  <path d="M351.6 235.4 c-0.4 -0.9 -0.4 -1.9 -0.2 -2.2 1 -0.9 3.6 0.8 3.6 2.3 0 2 -2.6 1.9 -3.4 -0.1z"/>
  <path d="M307.8 223 c-0.4 -2.5 -0.9 -5.4 -1.2 -6.5 -1.9 -7.1 -1.9 -7.2 -0.2 -5.1 1.9 2.4 2.8 6.9 2.4 12.1 l-0.3 4 -0.7 -4.5z"/>
  <path d="M329.1 222 c-0.1 -0.3 -0.4 -3.4 -0.7 -7 -0.2 -3.6 -0.7 -8.5 -1.1 -11 -0.4 -2.5 -0.7 -5.7 -0.8 -7.1 -0.1 -2.4 -3.7 -8.6 -5.8 -10 -0.5 -0.4 -0.4 -0.9 0.2 -1.3 1.7 -1.1 7.1 8.2 7.1 12.2 0 1.8 0.5 6.4 1.1 10.2 0.8 5.6 0.9 15.8 0 14z"/>
  <path d="M372 220 c0 -2.4 2.5 -2.7 3.4 -0.4 0.9 2.3 0.8 2.4 -1.4 2.4 -1.3 0 -2 -0.7 -2 -2z"/>
  <path d="M407 216.6 c0 -0.8 -0.6 -1.7 -1.2 -1.9 -0.8 -0.3 -0.6 -0.6 0.5 -0.6 1.1 -0.1 1.7 0.6 1.7 1.9 0 1.1 -0.2 2 -0.5 2 -0.3 0 -0.5 -0.6 -0.5 -1.4z"/>
  <path d="M318.8 215.3 c-2.7 -0.7 -6.7 -13.1 -4.6 -14.4 0.8 -0.5 1.8 0.8 3 3.9 1.7 4.3 3.9 11.4 3.5 11.1 -0.1 -0.1 -0.9 -0.3 -1.9 -0.6z"/>
  <path d="M344.8 211.3 c-2.2 -0.5 -2.4 -4.8 -0.4 -5.6 1 -0.4 1.5 0.4 1.8 2.9 0.2 1.9 0.4 3.3 0.3 3.3 0 -0.1 -0.8 -0.3 -1.7 -0.6z"/>
  <path d="M406.3 210.4 c-1.6 -1.6 -1.7 -4.4 -0.3 -4.4 1.3 0 2.3 2.4 1.8 4.3 -0.2 1.3 -0.5 1.3 -1.5 0.1z"/>
  <path d="M300.2 201 c-1.3 -4.3 -9.7 -17.5 -12.6 -20 -1.8 -1.4 -4.6 -6.2 -4.6 -7.8 0 -1.5 3.9 -2.3 14 -2.8 8.7 -0.4 31.2 -1.9 43.5 -2.9 l5 -0.4 -4.5 1 c-2.5 0.5 -9.2 1.3 -15 1.7 -5.8 0.5 -11.4 1.3 -12.5 1.9 -1.1 0.6 -5.5 1.1 -9.8 1.2 -8.9 0.2 -12.7 1.3 -12.7 3.6 0 1.9 4.6 11.1 6 12 0.5 0.3 1 1.4 1 2.4 0 1 0.9 3.9 2.1 6.5 1.1 2.6 1.9 5.4 1.7 6.2 -0.2 0.8 -0.9 -0.3 -1.6 -2.6z"/>
  <path d="M340.6 199.3 c-2 -5.8 -2 -6.3 0.2 -6.4 1 0 1.2 -0.3 0.5 -0.6 -2 -0.8 -1.6 -5.3 0.5 -5.3 1.4 0 1.5 -0.2 0.2 -1 -1.2 -0.8 -1.1 -1 0.8 -1 2 0 2.1 0.3 1.2 2 -0.6 1.2 -1 2.8 -0.8 3.8 0.1 0.9 -0.1 2.2 -0.5 2.8 -0.4 0.7 0 2.8 0.8 4.8 1.9 4.4 1.9 5.6 0.1 5.6 -0.8 0 -2.1 -2.1 -3 -4.7z"/>
  <path d="M194.4 197 c-0.5 -0.5 -6.3 -1.1 -12.9 -1.4 -6.6 -0.4 -15.5 -0.9 -19.7 -1.1 -4.2 -0.3 -7.9 -0.1 -8.2 0.3 -0.2 0.4 -2.5 0.6 -5 0.4 -3.2 -0.3 -4.6 -0.8 -4.6 -1.9 0 -1 1.3 -1.4 5.3 -1.4 13.3 -0.1 42.4 -1 44.3 -1.4 2.4 -0.5 10.9 -11.7 10.9 -14.3 0 -1.3 -0.9 -1.7 -3.5 -1.7 -6.8 -0.1 -16 -1.7 -15.4 -2.7 0.4 -0.7 3 -0.7 6.8 -0.3 6.5 0.9 15.9 0.8 19 -0.2 1.1 -0.3 1.6 -0.1 1.2 0.5 -0.3 0.6 -0.2 1.4 0.4 1.7 0.7 0.4 0.2 1.9 -1.5 4.1 -1.4 1.8 -4.4 6.2 -6.7 9.6 -2.3 3.5 -4.6 6.5 -5.1 6.7 -0.5 0.2 -1.7 1.1 -2.7 2.1 -1 1 -2.2 1.4 -2.6 1z"/>
  <path d="M136.6 193.6 c0.3 -0.8 1.2 -1.2 2 -0.9 2.1 0.8 1.7 2.3 -0.6 2.3 -1.3 0 -1.8 -0.5 -1.4 -1.4z"/>
  <path d="M105.3 191.6 c-2.9 -0.5 -5.3 -1.4 -5.3 -1.9 0 -0.5 -1.3 -0.6 -3 -0.2 -2.4 0.5 -3 0.3 -3 -1.1 0 -3.9 5.4 -23.7 7 -25.7 1.7 -2 2.1 -2.1 6.6 -0.9 4.6 1.2 13.6 2.7 25.4 4.1 l5.5 0.7 -6.9 0.8 c-6.5 0.8 -13.4 -0.1 -23.2 -2.9 -1.4 -0.5 -3.1 0.2 -5.1 1.9 -2.6 2.2 -3.3 3.8 -4.3 9.8 -1.2 7.2 -1.2 7.2 1.3 9.4 2.4 2.1 3.7 2.3 14.6 2.2 11.3 0 16.1 1 16.1 3.2 0 0.6 -3.3 1 -7.2 1.1 -4 0 -8.6 0.1 -10.3 0.2 -1.6 0.1 -5.4 -0.2 -8.2 -0.7z"/>
  <path d="M402 189 c0 -2 0.5 -3 1.5 -3 1 0 1.5 1 1.5 3 0 2 -0.5 3 -1.5 3 -1 0 -1.5 -1 -1.5 -3z"/>
  <path d="M400.6 181.4 c-1.1 -2.8 -0.6 -5.4 0.9 -5.4 0.8 0 1.5 0.9 1.5 1.9 0 1.1 0.3 2.6 0.6 3.5 0.4 1 0.1 1.6 -0.9 1.6 -0.8 0 -1.8 -0.7 -2.1 -1.6z"/>
  <path d="M238.1 168 c-2.7 -3.2 -5.2 -5.1 -7.3 -5.5 -1.8 -0.4 -3.8 -1.2 -4.5 -1.7 -0.7 -0.5 -4.7 -1 -9 -1.1 -6.2 -0.1 -8.8 0.4 -12.7 2.2 -4 1.9 -6.2 2.2 -11.3 1.9 -7.6 -0.5 -9.4 -1.9 -9.5 -7.7 0 -3.3 0.6 -4.9 2.7 -7.1 3.1 -3.3 9.8 -5.3 15.2 -4.5 2.1 0.3 5.6 0.7 7.8 1 6.3 0.6 15.9 3.3 16.3 4.5 0.2 0.6 2.7 2.2 5.5 3.6 l5.2 2.6 -4 -4.1 c-2.2 -2.2 -4.8 -4 -5.7 -4.1 -1 0 -1.8 -0.4 -1.8 -1 0 -0.5 -0.6 -1 -1.2 -1 -0.7 0 -3.1 -0.9 -5.3 -1.9 -6.5 -3.1 -10.8 -4.1 -17.1 -4.1 -8.6 0 -12.4 -2.8 -12.4 -9.1 0 -9.3 4.7 -13.3 15.5 -13.3 5.1 0 7 0.5 9.9 2.5 2 1.3 3.6 2.7 3.6 3 0 0.4 2 1.4 4.5 2.3 2.5 1 4.5 2.1 4.5 2.6 0 0.5 1.6 2.9 3.6 5.5 1.9 2.6 5 8.1 6.9 12.3 3.3 7.5 3.3 7.6 1.4 10 -1.8 2.3 -1.8 2.5 0.1 6.2 1.8 3.5 4.1 5 8.2 5 1 0 4.8 -2.8 8.4 -6.2 3.6 -3.5 7.7 -6.9 9.2 -7.7 1.4 -0.7 3.5 -2.2 4.6 -3.2 1.1 -1.1 2.8 -1.9 3.8 -1.9 1.4 0 1.6 0.4 0.8 2.5 -1.1 3 -1 3.1 6.4 4 3.2 0.4 7.6 1.3 9.8 2.1 4.8 1.7 12 1.8 13.5 0.3 1.9 -1.9 -1.1 -8.2 -4.3 -9.2 -3.2 -0.9 -18.5 -1 -21.8 -0.2 -1.6 0.5 -1.6 0.3 0.4 -0.8 4.1 -2.3 16.6 -3 21.9 -1.2 6.8 2.3 9.2 4.5 9.8 9.1 0.5 3.6 0.2 4.3 -2.2 6.2 -3.4 2.7 -7.6 2.8 -17.4 0.3 -6 -1.5 -8.8 -1.7 -14.2 -1 -8.7 1.1 -12.3 2.6 -18.2 7.9 -4.3 3.8 -5.2 4.2 -8.4 3.7 -2 -0.4 -4.4 -0.2 -5.3 0.3 -1.4 0.7 -2.6 0 -5.9 -4z m-32.8 -9.8 c1.8 -1.4 10.7 -4.2 13.4 -4.2 6.6 0 -1.6 -5.2 -11 -7 -8.9 -1.6 -15.2 -0.7 -18.9 3 -3.8 3.8 -3.7 6.7 0.5 8.6 3.5 1.6 13.8 1.3 16 -0.4z m26.4 -14.8 c0.7 -1.8 -0.8 -5.4 -4.4 -10.7 -1.8 -2.6 -5.1 -5.1 -11.2 -8.3 -7.4 -3.9 -9.4 -4.5 -14.5 -4.5 -7.7 0.1 -10.6 2.4 -10.6 8.7 0 2.4 0.6 4.7 1.4 5.3 0.8 0.7 4.7 1.5 8.8 1.8 4 0.3 8.3 1.2 9.5 1.9 1.2 0.8 3 1.4 4 1.4 1 0 2.9 0.7 4.3 1.5 8.1 4.7 11.7 5.5 12.7 2.9z"/>
  <path d="M153.8 170.2 c1.3 -0.9 12 -0.7 12.9 0.2 0.4 0.3 -2.7 0.6 -6.8 0.6 -4.1 0 -6.8 -0.4 -6.1 -0.8z"/>
  <path d="M363.2 164.9 c0.7 -0.4 4.3 -0.9 8.1 -1.1 3.7 -0.2 6.2 -0.1 5.5 0.3 -0.7 0.4 -4.3 0.9 -8.1 1.1 -3.7 0.2 -6.2 0.1 -5.5 -0.3z"/>
  <path d="M395 163.4 c-1.7 -0.9 -4.4 -1.2 -8.5 -0.9 -5.2 0.4 -4.9 0.3 2.5 -1 9.4 -1.7 11 -1.5 11 1.5 0 2.3 -1.4 2.4 -5 0.4z"/>
  <path d="M253.9 156.9 c-1.1 -0.7 -1 -0.9 0.6 -1 1.1 0 1.4 -0.3 0.8 -0.6 -1.9 -0.7 1 -5.6 4.9 -8.5 5.1 -3.6 11.7 -6.7 15.7 -7.4 4.7 -0.8 9.7 -2.2 14.3 -4.2 6.2 -2.6 7.4 -10.3 2 -13.1 -0.9 -0.5 -3.6 -1.2 -5.9 -1.6 -3.6 -0.6 -4.7 -0.3 -7.6 1.9 -1.9 1.4 -4.1 2.6 -4.9 2.6 -0.8 0 -2.7 1 -4.2 2.1 -1.5 1.2 -2.9 1.9 -3.2 1.6 -0.7 -0.7 6.3 -6 12.3 -9.2 6 -3.2 9.1 -3.1 16.9 0.7 3.9 1.8 5 3 5.7 5.7 1.5 6.1 -2.5 12.4 -8.8 13.6 -10.6 2.1 -17 4 -19.8 6 -1.9 1.2 -4.6 2.5 -6.1 2.9 -1.5 0.4 -4.7 2.6 -7 5.1 -3.1 3.1 -4.6 4.1 -5.7 3.4z"/>
  <path d="M237.7 141.8 c-1.6 -3.3 -3.3 -7.3 -3.9 -8.9 -0.5 -1.6 -1.4 -2.9 -1.9 -2.9 -0.5 0 -0.9 -0.4 -0.9 -1 0 -0.5 -1.2 -3.5 -2.7 -6.7 -3.8 -8 -3.9 -19.9 -0.2 -28.6 3.7 -8.4 7.5 -10.7 18.8 -11.4 l8.8 -0.6 4.3 3.9 c9.3 8.4 10.9 14.5 8 29.9 -1.4 7.4 -3.3 10.7 -5.6 9.8 -1.7 -0.6 -0.9 -8.7 1.2 -12 0.9 -1.4 1.4 -5.1 1.4 -9.6 l0 -7.4 -6.7 -6.2 -6.7 -6.1 -6.6 0 c-6.2 0 -6.8 0.2 -8.8 3 -1.2 1.6 -2.2 3.5 -2.2 4.2 0 0.8 -0.8 2.5 -1.7 3.8 -2.2 3.1 -5.3 11.7 -5.3 14.6 0 3.6 4.7 16.5 6.9 18.8 1.2 1.2 2.1 3 2.1 4 0 0.9 1.2 4.2 2.6 7.2 1.4 3 2.4 6.1 2.2 6.9 -0.2 0.8 -1.6 -1.3 -3.1 -4.7z"/>
  <path d="M254 142 c-1.3 -0.8 -1.2 -1 0.2 -1 1.1 0 1.5 -0.5 1.2 -1.5 -0.7 -1.6 2.1 -2.2 3 -0.6 1 1.5 -2.8 4.1 -4.4 3.1z"/>
  <path d="M261.9 134.2 c0.6 -1.2 1.6 -2.4 2.2 -2.8 0.8 -0.4 0.8 -0.1 0 1.4 -0.6 1.2 -1.6 2.4 -2.2 2.8 -0.8 0.4 -0.8 0.1 0 -1.4z"/>
 </g>
</svg>